<svg width="256" height="256" viewBox="0 0 256 256" fill="none" xmlns="http://www.w3.org/2000/svg">
<g clip-path="url(#clip0_295_4)">
<path d="M34.1335 106.666H221.867C223.147 106.666 224.427 106.24 225.28 104.96C226.134 103.68 226.56 102.4 226.134 101.12C213.76 56.7461 173.653 25.5996 128 25.5996C82.3465 25.5996 42.24 56.7461 29.8665 101.12C29.8665 102.4 29.8665 104.106 30.72 104.96C31.5735 106.24 32.8535 106.666 34.1335 106.666ZM128 34.1331C167.68 34.1331 203.52 60.1596 215.893 98.1331H39.68C52.48 60.1596 88.32 34.1331 128 34.1331Z" fill="#1FA9FF"/>
<path d="M226.133 124.587C224.427 124.16 222.293 124.16 220.587 124.16C202.24 124.16 190.72 133.547 190.72 148.907C190.72 162.56 200.107 174.507 213.76 177.92C213.76 177.92 214.187 177.92 214.614 177.92C216.32 177.92 217.6 177.067 217.6 176.214C225.28 161.28 229.547 150.614 229.547 133.547C229.547 132.267 229.547 131.414 229.547 130.134V128.427C229.546 126.72 228.266 125.014 226.133 124.587ZM222.293 132.694C222.293 146.774 218.88 156.16 212.907 168.107C204.8 165.12 199.68 157.44 199.68 148.48C199.68 133.974 214.613 132.267 221.013 132.267C221.013 132.267 221.44 132.267 222.293 131.84C222.293 132.267 222.293 132.267 222.293 132.694Z" fill="#1FA9FF"/>
<path d="M128.426 180.48C101.546 180.48 77.653 189.867 67.413 204.8C66.133 206.934 66.5595 209.494 68.2665 210.774C85.76 223.574 106.24 230.4 128 230.4C149.333 230.4 170.24 223.574 188.16 210.774C189.866 209.494 190.293 206.507 189.013 204.8C178.773 189.867 154.88 180.48 128.426 180.48ZM128 221.867C109.653 221.867 92.16 216.747 76.8 206.507C87.04 195.84 106.666 189.013 128 189.013C149.333 189.013 169.386 195.84 179.2 206.507C163.84 216.747 146.346 221.867 128 221.867Z" fill="#1FA9FF"/>
<path d="M128 0C57.6 0 0 57.6 0 128C0 198.4 57.6 256 128 256C198.4 256 256 198.4 256 128C256 57.6 198.4 0 128 0ZM128 247.467C62.2935 247.467 8.5335 193.706 8.5335 128C8.5335 62.2935 62.2935 8.5335 128 8.5335C193.706 8.5335 247.467 62.2935 247.467 128C247.467 193.706 193.706 247.467 128 247.467Z" fill="#1FA9FF"/>
<path d="M34.5601 118.613C32.8536 118.613 30.7201 118.613 29.0136 119.04C27.3071 119.466 25.6001 120.746 25.6001 122.88V124.586C25.6001 125.866 25.6001 126.72 25.6001 128C25.6001 144.64 29.8666 160.853 37.5466 175.786C38.4001 177.066 39.6801 177.92 41.3866 177.92C41.8131 177.92 42.2401 177.92 41.3866 177.493C55.0401 174.08 64.4266 162.133 64.4266 148.48C64.4266 132.266 51.2001 118.613 34.5601 118.613ZM43.5201 168.533C37.1201 155.733 34.1336 142.08 34.1336 128C34.1336 127.573 34.1336 127.573 34.1336 127.146C46.5071 126.72 56.7471 136.533 56.7471 148.906C56.7466 157.44 51.6266 165.12 43.5201 168.533Z" fill="#1FA9FF"/>
<path d="M85.3335 140.8C85.3335 153.174 103.68 162.134 128 162.134C152.32 162.134 170.666 153.174 170.666 140.8C170.666 128.427 152.32 119.467 128 119.467C103.68 119.467 85.3335 128.427 85.3335 140.8ZM162.133 140.8C162.133 145.92 148.907 153.6 128 153.6C107.093 153.6 93.8665 145.92 93.8665 140.8C93.8665 135.68 107.093 128 128 128C148.906 128 162.133 135.68 162.133 140.8Z" fill="#1FA9FF"/>
</g>
<defs>
<clipPath id="clip0_295_4">
<rect width="256" height="256" fill="white"/>
</clipPath>
</defs>
</svg>
